<?xml version="1.0" encoding="utf-8" ?><svg xmlns="http://www.w3.org/2000/svg" xmlns:xlink="http://www.w3.org/1999/xlink" width="555" height="176" viewBox="0 0 555 176"><clipPath id="cl_3"><rect y="3.0517578e-05" width="555" height="176.00002"/></clipPath><g clip-path="url(#cl_3)"><path fill="#4CC1AC" transform="matrix(0.17188 0 0 0.172043 0 3.05176e-05)" d="M454.996 51.9043C460.745 51.3798 466.515 51.1071 472.285 51.0864C542.649 51.3756 610.006 79.6608 659.488 129.701C727.138 198.382 731.207 259.554 730.348 348.404C815.593 361.894 876.164 420.059 867.094 507.5C855.096 623.227 903.495 804.838 813.978 894.014C752.986 954.781 679.722 949.589 603.386 949.4L485.114 949.019C410.43 948.809 335.931 950.63 261.04 949.172C157.51 947.157 76.2577 875.345 73.1766 769.837C71.8921 725.744 73.8622 681.28 73.7506 637.307C73.474 524.129 45.3961 356.627 208.961 351.32C208.007 272.28 209.874 215.726 262.676 149.882C312.256 88.0581 378.122 60.1776 454.996 51.9043ZM719.993 863.251C834.543 810.2 773.303 639.385 789.779 535.831C794.459 506.414 788.85 437.861 749.38 430.232C671.606 420.112 588.294 428.584 509.681 425.907C407.997 427.365 301.088 423.041 201.724 426.453C175.865 431.909 155.568 447.762 153.441 476.753C147.721 554.666 155.126 633.503 151.582 711.276C147.853 793.248 164.312 864.977 261.482 872.792C328.15 878.153 400.765 870.851 467.99 872.895C521.787 871.425 664.097 879.409 707.276 867.295C711.563 866.101 715.805 864.754 719.993 863.251ZM288.94 351.721L506.381 351.696L648.947 351.989C648.555 307.409 652.243 265.989 631.29 224.999C599.231 162.274 536.326 129.296 466.837 130.783C458.589 130.977 450.341 131.275 442.097 131.68C385.474 145.607 346.03 165.706 312.871 217.374C286.549 258.385 288.829 304.658 288.94 351.721Z"/><path fill="#4CC1AC" transform="matrix(0.17188 0 0 0.172043 0 3.05176e-05)" d="M459.25 507.141C502.961 503.874 547.201 524.513 566.221 565.306C576.695 588.122 577.592 614.185 568.708 637.667C557.601 666.981 535.987 685.369 508.066 697.967C507.752 736.558 520.366 770.118 481.987 791.484C416.258 795.512 427.496 748.375 429.256 699.834C394.755 682.462 368.445 657.187 363.266 617.176C359.895 591.612 366.929 565.768 382.79 545.438C403.061 519.945 428.198 510.813 459.25 507.141Z"/><path fill="#fefefe" transform="matrix(0.17188 0 0 0.172043 0 3.05176e-05)" d="M1160.86 432.875C1210.69 422.723 1283.37 442.359 1324.22 472.511C1364.7 502.845 1391.34 548.14 1398.19 598.266C1416.8 725.108 1335.41 813.801 1212.78 830.277C1155.77 835.263 1096.07 823.838 1049.81 788.696C1008.87 757.26 982.128 710.805 975.495 659.604C958.643 535.922 1040.8 447.291 1160.86 432.875ZM1203.68 737.603C1262.96 728.454 1303.53 672.883 1294.2 613.619C1284.88 554.356 1229.2 513.948 1169.97 523.46C1111.02 532.935 1070.83 588.333 1080.12 647.336C1089.41 706.339 1144.67 746.706 1203.68 737.603Z"/><path fill="#fefefe" transform="matrix(0.17188 0 0 0.172043 0 3.05176e-05)" d="M1862.16 279.859C1896.52 280.879 1932.89 280.078 1967.42 279.851L1967.51 623.285L2116.98 441.364C2157.39 441.355 2197.8 441.136 2238.21 440.707C2188.4 496.108 2139.77 561.716 2088.92 619.34L2197.37 754.199L2251.69 821.814L2126.44 821.182C2076.3 756.429 2014.18 682.329 1967.42 617.3C1966.28 683.932 1967.32 753.505 1967.33 820.373L1862.03 820.972L1862.16 279.859Z"/><path fill="#4CC1AC" transform="matrix(0.17188 0 0 0.172043 0 3.05176e-05)" d="M2760.53 440.447C2797.87 440.153 2835.87 440.703 2873.29 440.872C2884.23 462.871 2897.08 500.701 2906.62 524.584C2931.4 586.561 2954.12 650.083 2980.39 711.453C3010.62 621.459 3045.52 532.469 3076.29 441.322C3113.55 441.078 3150.84 441.157 3188.14 441.549C3156.17 533.534 3109.29 643.966 3072.74 734.612C3017.56 879.293 2991.83 1007.48 2800.34 980.283L2800.8 892.829C2868.25 904.617 2903.6 888.954 2925.53 823.846C2869.69 696.41 2814.68 568.606 2760.53 440.447Z"/><path fill="#4CC1AC" transform="matrix(0.17188 0 0 0.172043 0 3.05176e-05)" d="M2654.13 280.945C2687.59 278.079 2711.96 280.152 2744.75 284.085L2744.79 367.933C2676.43 357.813 2637.73 361.369 2638.89 441.851C2670.32 441.037 2704.15 441.599 2735.79 441.545L2735.75 527.822C2703.24 527.392 2669.66 527.975 2637.07 528.128L2637.57 810.381L2637.4 817.647C2626.04 825.346 2550.94 821.616 2531.89 821.273C2530.63 724.419 2531.52 625.412 2531.39 528.388C2509.08 527.781 2484.76 528.545 2462.29 528.805L2462.06 441.326L2532.58 441.492C2527.57 351.609 2560.76 293.056 2654.13 280.945Z"/><path fill="#fefefe" transform="matrix(0.17188 0 0 0.172043 0 3.05176e-05)" d="M1625.38 432.863C1700.18 421.5 1760.45 447.464 1809.34 502.374C1785.18 519.036 1760.28 539.338 1737.01 557.606C1616.94 449.092 1492.09 606.383 1577.79 704.456C1595.81 725.038 1621.36 737.471 1648.67 738.929C1686.25 741.048 1711.51 725.356 1737.93 701.181L1767.37 725.633C1777.64 735.434 1797.9 750.634 1809.59 759.973C1778.24 797.077 1734.17 821.124 1686.01 827.399C1627.8 835.407 1566.2 825.54 1518.7 789.229C1478.25 758.053 1451.89 712.031 1445.46 661.359C1429.61 541.411 1506.06 446.956 1625.38 432.863Z"/><path fill="#4CC1AC" transform="matrix(0.17188 0 0 0.172043 0 3.05176e-05)" d="M2298.88 441.289L2404.28 440.769L2403.83 820.476L2298.94 821.05C2298.25 694.464 2298.23 567.875 2298.88 441.289Z"/><path fill="#4CC1AC" transform="matrix(0.17188 0 0 0.172043 0 3.05176e-05)" d="M2328.67 259.418C2362.92 248.422 2399.64 267.022 2411.05 301.143C2422.47 335.261 2404.33 372.22 2370.36 384.054C2348.01 391.84 2323.21 387.003 2305.42 371.39C2287.63 355.777 2279.61 331.799 2284.43 308.624C2289.24 285.448 2306.14 266.654 2328.67 259.418Z"/></g></svg>